<?xml version="1.0" standalone="no"?>
<!DOCTYPE svg PUBLIC "-//W3C//DTD SVG 20010904//EN"
 "http://www.w3.org/TR/2001/REC-SVG-20010904/DTD/svg10.dtd">
<svg version="1.0" xmlns="http://www.w3.org/2000/svg"
 width="630.000000pt" height="630.000000pt" viewBox="0 0 630.000000 630.000000"
 preserveAspectRatio="xMidYMid meet">
<metadata>
Created by potrace 1.14, written by Peter Selinger 2001-2017
</metadata>
<g transform="translate(0.000000,630.000000) scale(0.100000,-0.100000)"
fill="#000000" stroke="none">
<path d="M0 3150 l0 -3150 1885 0 c1037 1 1885 5 1885 9 0 9 62 22 118 26 17
1 32 -2 32 -7 0 -4 5 -8 10 -8 6 0 9 6 8 13 -5 20 63 15 101 -7 38 -22 201
-36 224 -19 6 5 31 16 55 23 24 7 48 22 53 32 7 13 21 18 52 18 24 0 47 4 53
9 13 13 115 1 107 -13 -3 -6 0 -6 8 1 13 13 78 19 66 6 -4 -4 10 -15 30 -24
l38 -18 22 27 c13 15 23 35 23 44 0 9 13 26 29 37 26 19 35 20 82 11 45 -9 76
-25 99 -51 20 -23 100 -17 100 7 0 8 3 14 8 14 4 0 8 16 9 36 1 20 3 38 6 40
2 2 23 6 47 9 23 3 46 8 50 10 4 2 35 7 69 9 34 3 79 10 99 15 20 6 72 15 115
22 43 7 80 16 83 21 3 4 9 6 14 3 5 -3 28 -1 52 4 24 5 61 12 83 15 22 3 73
10 114 16 40 6 76 12 80 14 3 2 35 7 71 11 36 3 83 10 105 15 22 5 79 14 127
20 l88 12 0 2949 -1 2949 -3149 0 -3150 0 0 -3150z m6105 2122 c-3 -3 -11 0
-18 7 -9 10 -8 11 6 5 10 -3 15 -9 12 -12z m-735 -412 c0 -5 -2 -10 -4 -10 -3
0 -8 5 -11 10 -3 6 -1 10 4 10 6 0 11 -4 11 -10z m417 -126 c-3 -3 -12 -4 -19
-1 -8 3 -5 6 6 6 11 1 17 -2 13 -5z m398 -174 c-3 -5 -11 -10 -16 -10 -6 0 -7
5 -4 10 3 6 11 10 16 10 6 0 7 -4 4 -10z m21 -30 c0 -11 -4 -20 -8 -20 -10 0
-11 24 -1 33 9 9 9 10 9 -13z m21 -22 c-3 -7 -5 -2 -5 12 0 14 2 19 5 13 2 -7
2 -19 0 -25z m-53 -28 c-6 -6 -10 -2 -11 12 -2 16 1 18 10 9 7 -7 8 -14 1 -21z
m-574 -155 c0 -8 -4 -15 -10 -15 -5 0 -10 7 -10 15 0 8 5 15 10 15 6 0 10 -7
10 -15z m447 -10 c-11 -8 -26 -11 -35 -7 -13 5 -10 8 11 10 15 2 27 8 27 14 0
6 3 8 7 4 5 -4 0 -14 -10 -21z m-110 -11 c-3 -3 -12 -4 -19 -1 -8 3 -5 6 6 6
11 1 17 -2 13 -5z m130 -16 c-3 -8 -6 -5 -6 6 -1 11 2 17 5 13 3 -3 4 -12 1
-19z m-42 -87 c3 -5 1 -12 -5 -16 -5 -3 -10 1 -10 9 0 18 6 21 15 7z m-430
-49 c-3 -3 -11 0 -18 7 -9 10 -8 11 6 5 10 -3 15 -9 12 -12z m682 -34 c-3 -7
-5 -2 -5 12 0 14 2 19 5 13 2 -7 2 -19 0 -25z m-915 -10 c-7 -7 -12 -8 -12 -2
0 14 12 26 19 19 2 -3 -1 -11 -7 -17z m495 -10 c-3 -8 -6 -5 -6 6 -1 11 2 17
5 13 3 -3 4 -12 1 -19z m173 -39 c0 -5 -4 -9 -10 -9 -5 0 -10 7 -10 16 0 8 5
12 10 9 6 -3 10 -10 10 -16z m-104 -13 c0 -14 -5 -21 -9 -17 -4 4 -5 15 -1 24
9 24 12 21 10 -7z m60 -3 c-7 -7 -26 7 -26 19 0 6 6 6 15 -2 9 -7 13 -15 11
-17z m254 -8 c0 -8 -7 -15 -16 -15 -14 0 -14 3 -4 15 7 8 14 15 16 15 2 0 4
-7 4 -15z m-263 -31 c-3 -3 -12 -4 -19 -1 -8 3 -5 6 6 6 11 1 17 -2 13 -5z
m-246 -54 c5 0 9 -7 9 -16 0 -8 5 -12 10 -9 6 3 10 1 10 -4 0 -6 -3 -11 -8
-11 -14 0 -42 40 -41 58 1 16 2 16 6 0 2 -10 9 -18 14 -18z m-84 -12 c-3 -7
-5 -2 -5 12 0 14 2 19 5 13 2 -7 2 -19 0 -25z m310 16 c-3 -3 -12 -4 -19 -1
-8 3 -5 6 6 6 11 1 17 -2 13 -5z m223 -4 c0 -5 -4 -10 -10 -10 -5 0 -10 5 -10
10 0 6 5 10 10 10 6 0 10 -4 10 -10z m-200 -36 c0 -2 -7 -4 -15 -4 -8 0 -15 4
-15 10 0 5 7 7 15 4 8 -4 15 -8 15 -10z m-330 -14 c0 -5 -5 -10 -11 -10 -5 0
-7 5 -4 10 3 6 8 10 11 10 2 0 4 -4 4 -10z m227 -10 c-1 -23 -17 -28 -17 -6 0
8 -6 17 -12 19 -7 3 -3 6 9 6 16 1 21 -4 20 -19z m88 0 c3 -5 -1 -10 -10 -10
-9 0 -13 5 -10 10 3 6 8 10 10 10 2 0 7 -4 10 -10z m75 0 c0 -5 -5 -10 -11
-10 -5 0 -7 5 -4 10 3 6 8 10 11 10 2 0 4 -4 4 -10z m50 0 c0 -5 -2 -10 -4
-10 -3 0 -8 5 -11 10 -3 6 -1 10 4 10 6 0 11 -4 11 -10z m-430 -30 c0 -5 -5
-10 -11 -10 -5 0 -7 5 -4 10 3 6 8 10 11 10 2 0 4 -4 4 -10z m160 0 c0 -5 -4
-10 -10 -10 -5 0 -10 5 -10 10 0 6 5 10 10 10 6 0 10 -4 10 -10z m147 4 c-3
-3 -12 -4 -19 -1 -8 3 -5 6 6 6 11 1 17 -2 13 -5z m90 -26 c-3 -7 -5 -2 -5 12
0 14 2 19 5 13 2 -7 2 -19 0 -25z m-542 2 c-3 -5 -12 -10 -18 -10 -7 0 -6 4 3
10 19 12 23 12 15 0z m472 -22 c-3 -8 -6 -5 -6 6 -1 11 2 17 5 13 3 -3 4 -12
1 -19z m-90 -4 c-3 -3 -12 -4 -19 -1 -8 3 -5 6 6 6 11 1 17 -2 13 -5z m167
-33 c-4 -17 -9 -30 -11 -27 -3 2 -2 19 2 36 9 41 17 33 9 -9z m-174 10 c0 -5
-9 -7 -20 -4 -11 3 -20 7 -20 9 0 2 9 4 20 4 11 0 20 -4 20 -9z m337 -33 c-3
-8 -6 -5 -6 6 -1 11 2 17 5 13 3 -3 4 -12 1 -19z m-2381 -4 c111 -33 212 -123
271 -239 44 -86 90 -317 79 -394 -16 -119 -134 -265 -266 -331 -105 -53 -170
-70 -265 -70 -173 0 -337 75 -405 185 -58 94 -72 204 -45 361 22 127 44 192
106 304 36 65 158 155 224 165 25 3 47 10 50 15 3 5 11 7 18 4 8 -3 24 0 38 5
32 14 143 11 195 -5z m2344 -4 c0 -5 -5 -10 -11 -10 -5 0 -7 5 -4 10 3 6 8 10
11 10 2 0 4 -4 4 -10z m-363 -32 c-3 -8 -6 -5 -6 6 -1 11 2 17 5 13 3 -3 4
-12 1 -19z m113 12 c0 -5 -5 -10 -11 -10 -5 0 -7 5 -4 10 3 6 8 10 11 10 2 0
4 -4 4 -10z m120 0 c0 -5 -5 -10 -11 -10 -5 0 -7 5 -4 10 3 6 8 10 11 10 2 0
4 -4 4 -10z m-500 -7 c-1 -18 -18 -35 -24 -24 -4 6 -4 16 -1 21 7 12 25 13 25
3z m320 -13 c0 -5 -4 -10 -10 -10 -5 0 -10 5 -10 10 0 6 5 10 10 10 6 0 10 -4
10 -10z m-3872 -31 c98 -16 208 -78 282 -161 30 -33 60 -72 68 -87 80 -147
105 -230 117 -378 6 -73 4 -88 -15 -128 -36 -74 -109 -145 -196 -192 -165 -86
-403 -145 -526 -129 -54 8 -155 43 -179 63 -8 7 -19 13 -22 13 -4 0 -16 8 -28
18 -81 66 -127 140 -154 250 -15 57 -15 71 0 165 28 180 83 307 173 403 137
142 287 194 480 163z m3852 1 c0 -5 -4 -10 -10 -10 -5 0 -10 5 -10 10 0 6 5
10 10 10 6 0 10 -4 10 -10z m-280 -16 c0 -8 -4 -12 -10 -9 -5 3 -10 10 -10 16
0 5 5 9 10 9 6 0 10 -7 10 -16z m60 -18 c0 -3 -4 -8 -10 -11 -5 -3 -10 -1 -10
4 0 6 5 11 10 11 6 0 10 -2 10 -4z m237 -18 c-3 -8 -6 -5 -6 6 -1 11 2 17 5
13 3 -3 4 -12 1 -19z m195 -16 c-4 -13 -7 -12 -12 4 -4 10 -5 23 -2 28 7 13
21 -16 14 -32z m-32 -51 c0 -16 -12 -41 -20 -41 -4 0 -5 11 -2 25 4 23 22 36
22 16z m-111 -23 c0 -13 -3 -17 -6 -10 -2 6 -11 12 -19 12 -9 0 -12 5 -9 10
12 19 35 10 34 -12z m-94 2 c3 -5 1 -10 -4 -10 -6 0 -11 5 -11 10 0 6 2 10 4
10 3 0 8 -4 11 -10z m-365 -26 c0 -8 -6 -14 -14 -14 -18 0 -29 27 -13 33 16 6
27 -1 27 -19z m270 2 c0 -2 -7 -7 -16 -10 -8 -3 -12 -2 -9 4 6 10 25 14 25 6z
m-380 -31 c0 -2 -7 -5 -15 -9 -9 -3 -15 0 -15 9 0 9 6 12 15 9 8 -4 15 -7 15
-9z m325 5 c3 -5 1 -10 -4 -10 -6 0 -11 5 -11 10 0 6 2 10 4 10 3 0 8 -4 11
-10z m65 -11 c0 -5 -4 -9 -10 -9 -5 0 -10 7 -10 16 0 8 5 12 10 9 6 -3 10 -10
10 -16z m-273 -21 c-3 -7 -5 -2 -5 12 0 14 2 19 5 13 2 -7 2 -19 0 -25z m340
10 c-3 -8 -6 -5 -6 6 -1 11 2 17 5 13 3 -3 4 -12 1 -19z m213 7 c0 -16 -35
-21 -45 -6 -4 8 9 15 38 20 4 0 7 -6 7 -14z m-713 -37 c-3 -8 -6 -5 -6 6 -1
11 2 17 5 13 3 -3 4 -12 1 -19z m413 2 c0 -5 -5 -10 -11 -10 -5 0 -7 5 -4 10
3 6 8 10 11 10 2 0 4 -4 4 -10z m300 0 c0 -5 -4 -10 -10 -10 -5 0 -10 5 -10
10 0 6 5 10 10 10 6 0 10 -4 10 -10z m-303 -26 c-3 -3 -12 -4 -19 -1 -8 3 -5
6 6 6 11 1 17 -2 13 -5z m300 -26 c-3 -7 -5 -2 -5 12 0 14 2 19 5 13 2 -7 2
-19 0 -25z m-460 -10 c-3 -7 -5 -2 -5 12 0 14 2 19 5 13 2 -7 2 -19 0 -25z
m-250 -15 c0 -7 -4 -13 -9 -13 -4 0 -8 4 -8 9 0 5 -3 17 -7 27 -6 16 -5 17 8
4 9 -8 16 -20 16 -27z m440 31 c-3 -3 -12 -4 -19 -1 -8 3 -5 6 6 6 11 1 17 -2
13 -5z m-17 -25 c0 -5 6 -7 13 -3 9 5 9 4 0 -6 -9 -10 -15 -10 -28 4 -15 14
-15 16 -1 16 9 0 16 -5 16 -11z m318 -24 c-3 -3 -9 2 -12 12 -6 14 -5 15 5 6
7 -7 10 -15 7 -18z m-568 -7 c0 -13 -23 -5 -28 10 -2 7 2 10 12 6 9 -3 16 -11
16 -16z m167 -44 c-3 -3 -12 -4 -19 -1 -8 3 -5 6 6 6 11 1 17 -2 13 -5z m-204
-496 c-8 -14 -19 -8 -20 12 -1 16 1 17 12 7 7 -6 11 -15 8 -19z m-2406 -54
c-3 -3 -12 -4 -19 -1 -8 3 -5 6 6 6 11 1 17 -2 13 -5z m1803 -4 c0 -5 -4 -10
-10 -10 -5 0 -10 5 -10 10 0 6 5 10 10 10 6 0 10 -4 10 -10z m-1753 -16 c-3
-3 -12 -4 -19 -1 -8 3 -5 6 6 6 11 1 17 -2 13 -5z m-103 -29 c-4 -8 -10 -15
-15 -15 -5 0 -9 7 -9 15 0 8 7 15 15 15 9 0 12 -6 9 -15z m-177 -17 c-3 -8 -6
-5 -6 6 -1 11 2 17 5 13 3 -3 4 -12 1 -19z m100 16 c-3 -3 -12 -4 -19 -1 -8 3
-5 6 6 6 11 1 17 -2 13 -5z m18 -62 c-5 -15 -9 -13 -25 8 -11 14 -20 28 -20
32 0 14 29 -4 33 -20 3 -10 6 -1 7 18 3 33 3 33 7 7 3 -16 2 -36 -2 -45z m165
64 c0 -3 -4 -8 -10 -11 -5 -3 -10 -1 -10 4 0 6 5 11 10 11 6 0 10 -2 10 -4z
m3137 -23 c-11 -27 -37 -60 -37 -49 0 12 25 62 35 68 15 12 16 10 2 -19z
m-3227 -14 c0 -12 -49 -16 -54 -4 -2 7 7 12 25 12 16 0 29 -4 29 -8z m2170
-65 c0 -8 -4 -12 -10 -9 -5 3 -10 1 -10 -6 0 -7 -3 -10 -6 -6 -9 9 3 37 16 37
5 0 10 -7 10 -16z m995 -514 c3 -6 -1 -7 -9 -4 -18 7 -21 14 -7 14 6 0 13 -4
16 -10z m-1758 -122 c-3 -8 -6 -5 -6 6 -1 11 2 17 5 13 3 -3 4 -12 1 -19z
m-1477 -257 l25 -7 -32 -17 c-35 -19 -153 -24 -153 -7 0 6 8 10 18 10 10 0 22
4 28 9 5 5 23 11 39 14 43 6 47 6 75 -2z m2795 -121 c-3 -5 -12 -10 -18 -10
-7 0 -6 4 3 10 19 12 23 12 15 0z m328 -415 c-3 -9 -8 -14 -10 -11 -3 3 -2 9
2 15 9 16 15 13 8 -4z m-26 -31 c-3 -3 -12 -4 -19 -1 -8 3 -5 6 6 6 11 1 17
-2 13 -5z"/>
<path d="M3512 3573 c-25 -48 -35 -131 -29 -243 8 -135 34 -234 72 -270 21
-20 28 -22 50 -12 39 18 47 55 49 207 1 175 -14 253 -59 301 -35 37 -69 44
-83 17z"/>
<path d="M1987 3513 c-47 -53 -77 -193 -77 -361 0 -86 12 -125 53 -169 46 -51
88 -12 132 121 28 87 42 272 25 336 -21 78 -93 117 -133 73z"/>
<path d="M5355 229 c-4 -6 -5 -12 -2 -15 2 -3 7 2 10 11 7 17 1 20 -8 4z"/>
<path d="M5315 220 c-3 -5 -1 -10 4 -10 6 0 11 5 11 10 0 6 -2 10 -4 10 -3 0
-8 -4 -11 -10z"/>
<path d="M5366 85 c-3 -8 -1 -15 4 -15 6 0 10 7 10 15 0 8 -2 15 -4 15 -2 0
-6 -7 -10 -15z"/>
<path d="M4455 60 c-3 -5 -1 -10 4 -10 6 0 11 5 11 10 0 6 -2 10 -4 10 -3 0
-8 -4 -11 -10z"/>
<path d="M5360 50 c0 -5 5 -10 11 -10 5 0 7 5 4 10 -3 6 -8 10 -11 10 -2 0 -4
-4 -4 -10z"/>
<path d="M5390 49 c0 -5 5 -7 10 -4 6 3 10 8 10 11 0 2 -4 4 -10 4 -5 0 -10
-5 -10 -11z"/>
<path d="M4910 39 c0 -5 5 -7 10 -4 6 3 10 8 10 11 0 2 -4 4 -10 4 -5 0 -10
-5 -10 -11z"/>
<path d="M5312 30 c0 -14 2 -19 5 -12 2 6 2 18 0 25 -3 6 -5 1 -5 -13z"/>
<path d="M5434 39 c-3 -6 -2 -15 3 -20 5 -5 9 -1 9 11 0 23 -2 24 -12 9z"/>
<path d="M5482 25 c0 -17 2 -22 5 -12 2 9 2 23 0 30 -3 6 -5 -1 -5 -18z"/>
<path d="M5500 40 c0 -5 5 -10 11 -10 5 0 7 5 4 10 -3 6 -8 10 -11 10 -2 0 -4
-4 -4 -10z"/>
<path d="M5065 30 c-3 -5 1 -10 10 -10 9 0 13 5 10 10 -3 6 -8 10 -10 10 -2 0
-7 -4 -10 -10z"/>
<path d="M5161 24 c0 -11 3 -14 6 -6 3 7 2 16 -1 19 -3 4 -6 -2 -5 -13z"/>
<path d="M5625 30 c3 -5 8 -10 11 -10 2 0 4 5 4 10 0 6 -5 10 -11 10 -5 0 -7
-4 -4 -10z"/>
<path d="M4875 19 c-4 -6 -5 -12 -2 -15 2 -3 7 2 10 11 7 17 1 20 -8 4z"/>
<path d="M4980 21 c0 -6 5 -13 10 -16 6 -3 10 1 10 9 0 9 -4 16 -10 16 -5 0
-10 -4 -10 -9z"/>
<path d="M5368 13 c7 -3 16 -2 19 1 4 3 -2 6 -13 5 -11 0 -14 -3 -6 -6z"/>
</g>
</svg>
